<?xml version="1.0" encoding="iso-8859-1"?>
<!-- Generator: Adobe Illustrator 19.0.0, SVG Export Plug-In . SVG Version: 6.00 Build 0)  -->
<svg version="1.1" id="Capa_1" xmlns="http://www.w3.org/2000/svg" xmlns:xlink="http://www.w3.org/1999/xlink" x="0px" y="0px"
	 viewBox="0 0 459.527 459.527" style="enable-background:new 0 0 459.527 459.527;" xml:space="preserve">
<g>
	<g>
		<path d="M359.228,100.327c-2.188-0.61-4.449-0.92-6.72-0.92h-103.4c-0.442-26.256-10.969-51.335-29.4-70.04
			C180.456-9.829,116.861-9.783,77.665,29.47c-39.196,39.253-39.15,102.848,0.103,142.044c15.911,15.888,36.694,25.978,59.02,28.653
			v0.16v231.2c0,15.464,12.536,28,28,28h184c34.448-0.088,62.352-27.992,62.44-62.44v-235.24
			C411.11,131.442,389.189,105.507,359.228,100.327z M307.948,109.847h31.52v29.12l-12-13.64c-1.881-2.159-5.153-2.392-7.32-0.52
			l-0.56,0.56l-12,13.56L307.948,109.847z M84.956,164.239c-16.891-16.9-26.376-39.818-26.368-63.712
			c-0.022-23.894,9.479-46.811,26.4-63.68c35.187-35.169,92.223-35.155,127.392,0.032s35.155,92.223-0.032,127.392
			C177.161,199.441,120.126,199.426,84.956,164.239z M195.948,189.127c2.827-1.52,5.587-3.173,8.28-4.96h108.4
			c3.468,0,6.28,2.812,6.28,6.28v15.4c-0.011,1.652-0.672,3.232-1.84,4.4c-1.168,1.168-2.748,1.829-4.4,1.84h-110.44
			c-1.654,0.021-3.25-0.612-4.44-1.76c-1.191-1.185-1.855-2.8-1.84-4.48v-15.4C195.904,190.008,195.904,189.566,195.948,189.127z
			 M147.148,201.007h1.52c12.649-0.03,25.177-2.46,36.92-7.16v12c-0.066,4.496,1.695,8.826,4.88,12
			c3.106,3.115,7.321,4.87,11.72,4.88h110.4c4.399-0.01,8.614-1.765,11.72-4.88c3.214-3.161,5.005-7.492,4.96-12v-15.4
			c-0.044-9.165-7.475-16.578-16.64-16.6h-95.2l2.28-2.2c16.602-16.567,26.853-38.441,28.96-61.8h48.92v43.12
			c0.034,2.872,2.39,5.172,5.261,5.138c1.461-0.017,2.846-0.648,3.819-1.738l17.04-19.6l16.92,19.48
			c1.835,2.209,5.113,2.513,7.323,0.678c1.178-0.978,1.865-2.426,1.877-3.958v-43.12c4.901-0.576,9.81,1.016,13.44,4.36
			c2.792,2.773,4.362,6.545,4.36,10.48v242.76c-0.011,0.2-0.011,0.4,0,0.6c0.36,12.92-2.44,22.32-8.2,28.48
			c-5.76,6.16-14.88,9.36-27,9.76h-170.44c-5.336-0.009-10.535,1.687-14.84,4.84V201.007z M161.988,416.647h170.64
			c15.04-0.48,26.6-4.72,34.4-13c7.8-8.28,11.48-20,11-36v-242.84c-0.003-2.161-0.286-4.312-0.84-6.4
			c1.333,0.853,2.627,1.773,3.88,2.76h0c2.224,5.866,3.363,12.087,3.36,18.36v235.12c-0.131,28.664-23.336,51.869-52,52h-184.44
			C150.07,420.687,155.676,416.683,161.988,416.647z M400.988,396.967c-0.131,28.664-23.336,51.869-52,52h-184
			c-7.585-0.012-14.329-4.829-16.8-12h184.16c34.448-0.088,62.352-27.992,62.44-62.44v-235c0-0.693-0.013-1.387-0.04-2.08
			c4.063,7.493,6.207,15.876,6.24,24.4V396.967z"/>
	</g>
</g>
<g>
	<g>
		<path d="M177.988,95.527h-24.2v-24.36c0-2.85-2.31-5.16-5.16-5.16s-5.16,2.31-5.16,5.16v24.2h-24.16
			c-2.85-0.003-5.163,2.304-5.166,5.154c-0.003,2.85,2.304,5.163,5.154,5.166c0.004,0,0.008,0,0.013,0v0.16h24.2v24
			c-0.251,2.839,1.847,5.343,4.686,5.594s5.343-1.847,5.594-4.686c0.027-0.302,0.027-0.606,0-0.908v-24h24.2
			c2.85,0,5.16-2.311,5.159-5.161C183.147,97.837,180.838,95.527,177.988,95.527z"/>
	</g>
</g>
<g>
	<g>
		<path d="M148.703,20.487c-44.183-0.009-80.008,35.8-80.017,79.983c-0.005,21.239,8.437,41.607,23.463,56.617
			c14.976,15.009,35.317,23.431,56.52,23.4c44.183,0.009,80.008-35.8,80.017-79.983C228.695,56.321,192.885,20.496,148.703,20.487z
			 M197.908,149.712c-27.157,27.172-71.2,27.185-98.373,0.027c-13.047-13.039-20.38-30.727-20.387-49.173
			c-0.029-18.456,7.298-36.162,20.36-49.2c27.157-27.172,71.2-27.185,98.373-0.027C225.053,78.497,225.066,122.54,197.908,149.712z"
			/>
	</g>
</g>
<g>
</g>
<g>
</g>
<g>
</g>
<g>
</g>
<g>
</g>
<g>
</g>
<g>
</g>
<g>
</g>
<g>
</g>
<g>
</g>
<g>
</g>
<g>
</g>
<g>
</g>
<g>
</g>
<g>
</g>
</svg>
