<svg width="598" height="642" xmlns="http://www.w3.org/2000/svg" xmlns:xlink="http://www.w3.org/1999/xlink" overflow="hidden"><defs><clipPath id="clip0"><path d="M242-13 840-13 840 629 242 629Z" fill-rule="evenodd" clip-rule="evenodd"/></clipPath><clipPath id="clip1"><path d="M244 116 756 116 756 628 244 628Z" fill-rule="evenodd" clip-rule="evenodd"/></clipPath><clipPath id="clip2"><path d="M244 116 756 116 756 628 244 628Z" fill-rule="evenodd" clip-rule="evenodd"/></clipPath><clipPath id="clip3"><path d="M244 116 756 116 756 628 244 628Z" fill-rule="evenodd" clip-rule="evenodd"/></clipPath></defs><g clip-path="url(#clip0)" transform="translate(-242 13)"><g clip-path="url(#clip1)"><g clip-path="url(#clip2)"><g clip-path="url(#clip3)"><path d="M683.246 462.137C679.047 462.137 675.642 465.542 675.642 469.741L675.642 532.587 675.641 532.587 356.856 532.587C344.308 532.587 332.883 537.465 324.358 545.412L324.358 163.706C324.358 145.758 338.908 131.208 356.856 131.208L424.656 131.208C428.855 131.208 432.26 127.803 432.26 123.604 432.26 119.405 428.855 116 424.656 116L356.856 116C330.508 116 309.15 137.359 309.15 163.706L309.15 580.294C309.15 606.641 330.509 628 356.856 628L683.246 628C687.445 628 690.85 624.595 690.85 620.396L690.85 540.193 690.85 469.742C690.85 465.542 687.446 462.137 683.246 462.137ZM356.856 547.796 645.232 547.796 645.232 556.922 383.667 556.922C379.467 556.922 376.063 560.326 376.063 564.526 376.063 568.726 379.467 572.13 383.667 572.13L645.232 572.13 645.232 581.255 356.86 581.255C348.182 581.255 340.022 577.873 333.88 571.731 331.725 569.576 329.908 567.165 328.447 564.539 334 554.561 344.65 547.796 356.856 547.796ZM675.642 612.791 675.642 612.791 356.856 612.791C340.137 612.791 326.332 600.099 324.556 583.845 333.39 591.99 344.782 596.46 356.86 596.46L652.836 596.46C657.036 596.46 660.44 593.056 660.44 588.856L660.44 547.794 675.643 547.794 675.643 612.791Z" fill="#8D0019"/><path d="M683.245 116 460.143 116C455.944 116 452.539 119.405 452.539 123.604 452.539 127.803 455.944 131.208 460.143 131.208L675.642 131.208 675.642 434.253C675.642 438.452 679.047 441.857 683.246 441.857 687.445 441.857 690.85 438.452 690.85 434.253L690.85 123.604C690.849 119.405 687.445 116 683.245 116Z" fill="#8D0019"/><path d="M520.38 234.547C517.579 234.547 515.944 235.948 514.312 237.581L492.837 263.023C490.737 264.657 488.635 268.392 488.635 271.194 488.635 275.395 491.669 279.364 495.872 279.364 497.271 279.364 499.139 278.664 500.773 276.797L509.41 263.959 509.41 398.405C509.41 403.071 514.312 405.406 519.213 405.406 524.115 405.406 529.016 403.071 529.016 398.404L529.016 241.549C529.016 237.114 524.581 234.547 520.38 234.547Z" fill="#8D0019"/></g></g></g><rect x="486" y="231" width="54" height="179" fill="#FFFFFF"/><text fill="#8D0019" font-family="Exo 2,Exo 2_MSFontService,sans-serif" font-weight="600" font-size="93" transform="matrix(0.707107 -0.707107 0.707107 0.707107 367.398 509)">RESERVED</text></g></svg>