<?xml version="1.0"?>
<svg xmlns="http://www.w3.org/2000/svg" height="512px" viewBox="-45 -33 1065 1065.0016" width="512px" class=""><g><path d="m356.164062 91.46875 110.519532-87.214844c10.871094-8.589844 25.957031-8.183594 36.304687.148438l107.726563 87.066406h162.671875c16.15625 0 29.253906 13.097656 29.253906 29.25v113.128906l158.132813 121.117188c7.515624 5.75 11.464843 14.421875 11.472656 23.203125l.066406 588.996093c0 16.15625-13.089844 29.253907-29.25 29.253907h-916.65625c-16.148438 0-29.25-13.097657-29.25-29.253907v-588.996093c0-10.1875 5.207031-19.15625 13.101562-24.398438l156.578126-119.921875v-113.128906c0-16.152344 13.09375-29.25 29.25-29.25zm-43.054687 285.730469c-16.164063 0-29.25 13.085937-29.25 29.25 0 16.152343 13.085937 29.253906 29.25 29.253906 16.15625 0 29.257813-13.101563 29.257813-29.253906 0-16.164063-13.101563-29.25-29.257813-29.25zm117.015625 58.503906h226.238281c16.15625 0 29.25-13.101563 29.25-29.253906 0-16.164063-13.09375-29.25-29.25-29.25h-226.238281c-16.152344 0-29.25 13.085937-29.25 29.25 0 16.152343 13.097656 29.253906 29.25 29.253906zm-117.015625-175.53125c-16.164063 0-29.25 13.097656-29.25 29.25 0 16.15625 13.085937 29.261719 29.25 29.261719 16.15625 0 29.257813-13.105469 29.257813-29.261719 0-16.152344-13.101563-29.25-29.257813-29.25zm117.015625 58.511719h226.238281c16.15625 0 29.25-13.105469 29.25-29.261719 0-16.152344-13.09375-29.25-29.25-29.25h-226.238281c-16.152344 0-29.25 13.097656-29.25 29.25 0 16.15625 13.097656 29.261719 29.25 29.261719zm-360.980469 63.515625 97.691407 86.472656v-161.300781zm156.199219 138.265625 128.332031 113.597656 72.425781-65.027344c33.542969-30.117187 83.726563-30.117187 117.265626 0l74.664062 67.039063 126.09375-113.308594v-372.78125h-518.78125zm84.675781 152.792968c-84.804687-75.0625-169.542969-150.078124-254.347656-225.144531v453.519531zm492.621094-203.058593 97.816406-87.898438-97.816406-74.929687zm111.164063-21.339844-252.046876 226.464844 252.046876 226.308593zm-47.046876 489.050781-362.472656-325.453125c-11.140625-9.996093-27.960937-9.996093-39.09375 0l-362.476562 325.453125zm-348.847656-846.441406-33.4375-27.046875-34.273437 27.046875zm0 0" fill-rule="evenodd" data-original="#000000" class="active-path" data-old_color="#000000" fill="#8D0019"/></g> </svg>
