<svg width="152" height="182" xmlns="http://www.w3.org/2000/svg" xmlns:xlink="http://www.w3.org/1999/xlink" overflow="hidden"><defs><clipPath id="clip0"><path d="M529 152 681 152 681 334 529 334Z" fill-rule="evenodd" clip-rule="evenodd"/></clipPath></defs><g clip-path="url(#clip0)" transform="translate(-529 -152)"><path d="M555 180C555 173.925 559.925 169 566 169L571.667 169 571.667 169 596.667 169 644 169C650.075 169 655 173.925 655 180L655 207.5 655 207.5 655 224 655 224C655 230.075 650.075 235 644 235L596.667 235 584.167 243.25 571.667 235 566 235C559.925 235 555 230.075 555 224L555 224 555 207.5 555 207.5Z" stroke="#8D0019" stroke-width="4" stroke-miterlimit="8" fill="#FFFFFF" fill-rule="evenodd"/><path d="M573 211 636.508 211" stroke="#8D0019" stroke-width="4" stroke-miterlimit="8" fill="none" fill-rule="evenodd"/><path d="M573 190 636.508 190" stroke="#8D0019" stroke-width="4" stroke-miterlimit="8" fill="none" fill-rule="evenodd"/><path d="M531 182C531 166.536 543.312 154 558.5 154 573.688 154 586 166.536 586 182 586 197.464 573.688 210 558.5 210 543.312 210 531 197.464 531 182Z" stroke="#8D0019" stroke-width="4" stroke-miterlimit="8" fill="#FFFFFF" fill-rule="evenodd"/><path d="M544.537 178.266 554.266 178.266 554.266 169.272 562.734 169.272 562.734 178.266 572.463 178.266 572.463 186.734 562.734 186.734 562.734 195.728 554.266 195.728 554.266 186.734 544.537 186.734Z" stroke="#8D0019" stroke-miterlimit="8" fill="#8D0019" fill-rule="evenodd"/><path d="M0 11.0002C-3.18283e-15 4.92497 4.92497-1.59142e-15 11.0002-1.59142e-15L16.6667 0 16.6667 0 41.6667 0 88.9998 0C95.075-1.59142e-15 100 4.92497 100 11.0002L100 38.5 100 38.5 100 55 100 54.9998C100 61.075 95.075 66 88.9998 66L41.6667 66 29.167 74.25 16.6667 66 11.0002 66C4.92497 66 1.59142e-15 61.075 1.59142e-15 54.9998L0 55 0 38.5 0 38.5Z" stroke="#8D0019" stroke-width="4" stroke-miterlimit="8" fill="#FFFFFF" fill-rule="evenodd" transform="matrix(-1 -8.74228e-08 -8.74228e-08 1 655 257)"/><path d="M0 0 63.5077 0.000104987" stroke="#8D0019" stroke-width="4" stroke-miterlimit="8" fill="none" fill-rule="evenodd" transform="matrix(-1 -8.74228e-08 -8.74228e-08 1 636.508 299)"/><path d="M0 0 63.5077 0.000104987" stroke="#8D0019" stroke-width="4" stroke-miterlimit="8" fill="none" fill-rule="evenodd" transform="matrix(-1 -8.74228e-08 -8.74228e-08 1 636.508 278)"/><path d="M0 28C-7.00223e-15 12.536 12.3122 0 27.5 0 42.6878-7.12955e-15 55 12.536 55 28 55 43.464 42.6878 56 27.5 56 12.3122 56-1.05034e-14 43.464 0 28Z" stroke="#8D0019" stroke-width="4" stroke-miterlimit="8" fill="#FFFFFF" fill-rule="evenodd" transform="matrix(-1 -8.74228e-08 -8.74228e-08 1 679 242)"/><rect x="636.935" y="266.266" width="30.1309" height="8.46719" stroke="#8D0019" stroke-miterlimit="8" fill="#8D0019"/></g></svg>