<svg xmlns="http://www.w3.org/2000/svg" xmlns:xlink="http://www.w3.org/1999/xlink" width="82.113" height="206" viewBox="0 0 82.113 206">
  <defs>
    <linearGradient id="linear-gradient" x1="0.5" x2="0.5" y2="1" gradientUnits="objectBoundingBox">
      <stop offset="0" stop-color="#d3d3d3"/>
      <stop offset="1" stop-color="#2d3436"/>
    </linearGradient>
    <linearGradient id="linear-gradient-6" x1="0.5" x2="0.5" y2="1" gradientUnits="objectBoundingBox">
      <stop offset="0"/>
      <stop offset="1" stop-color="#434343"/>
    </linearGradient>
  </defs>
  <g id="unselected_milestone" transform="translate(0 3.5)">
    <g id="Group_11" data-name="Group 11" transform="translate(-256 -221.5)">
      <g id="unselected_milestone-2" data-name="unselected_milestone" transform="translate(0 -12)">
        <line id="Line_2" data-name="Line 2" y2="199" transform="translate(280.5 233.5)" fill="none" stroke="#dadada" stroke-linecap="round" stroke-width="7"/>
        <g id="Group_5" data-name="Group 5" transform="translate(-284 -219.862)">
          <g id="maps-icon" transform="translate(540 516.262)">
            <path id="Path_1" data-name="Path 1" d="M66.525,9.386A24.376,24.376,0,0,0,40.5,16.955l11.515,9.687Z" transform="translate(-34.785 -8.25)" fill="url(#linear-gradient)"/>
            <path id="Path_2" data-name="Path 2" d="M35.39,24.73A24.276,24.276,0,0,0,29.68,40.4a27.486,27.486,0,0,0,2.414,11.626L46.9,34.417Z" transform="translate(-29.68 -16.025)" fill="url(#linear-gradient)"/>
            <path id="Path_3" data-name="Path 3" d="M69.442,24.318a9.321,9.321,0,0,1,7.12,15.339s7.363-8.758,14.51-17.251A24.422,24.422,0,0,0,76.81,10.4L62.29,27.656a9.3,9.3,0,0,1,7.152-3.338" transform="translate(-45.065 -9.264)" fill="url(#linear-gradient)"/>
            <path id="Path_4" data-name="Path 4" d="M56.213,58.367A9.326,9.326,0,0,1,49.061,43.06L36.895,57.525,34.25,60.67c2.53,5.615,6.74,10.12,11.076,15.8l18-21.4a9.3,9.3,0,0,1-7.115,3.3" transform="translate(-31.836 -24.673)" fill="url(#linear-gradient)"/>
            <path id="Path_5" data-name="Path 5" d="M72.872,77.626C81,64.912,90.482,59.139,90.482,44.36a24.256,24.256,0,0,0-2.741-11.23L55.23,71.784c1.379,1.806,2.768,3.729,4.125,5.847,4.944,7.638,3.571,12.217,6.761,12.217s1.812-4.585,6.756-12.223" transform="translate(-41.734 -19.988)" fill="url(#linear-gradient)"/>
          </g>
          <g id="Group_3" data-name="Group 3" transform="translate(553.78 529.916)">
            <circle id="Ellipse_1" data-name="Ellipse 1" cx="10.5" cy="10.5" r="10.5" transform="translate(0.22 -0.054)" fill="#fff"/>
          </g>
        </g>
      </g>
      <g id="Path_6" data-name="Path 6" transform="matrix(0.017, -1, 1, 0.017, 321.74, 325.06)" stroke-linecap="round" stroke-linejoin="round" fill="url(#linear-gradient-6)">
        <path d="M 18.23680686950684 15.5549430847168 L 17.37109565734863 15.5549430847168 L -4.078674464835785e-06 15.5549430847168 L -0.8657140731811523 15.5549430847168 L -0.4330940842628479 14.80508327484131 L 8.252455711364746 -0.2498565465211868 L 8.685545921325684 -1.00054657459259 L 9.118636131286621 -0.2498565465211868 L 17.80418586730957 14.80508327484131 L 18.23680686950684 15.5549430847168 Z" stroke="none"/>
        <path d="M 8.685545921325684 3.814697265625e-06 L -3.814697265625e-06 15.0549430847168 L 17.37109565734863 15.0549430847168 L 8.685545921325684 3.814697265625e-06 M 8.685545921325684 -0.9999961853027344 C 9.042925834655762 -0.9999961853027344 9.373136520385742 -0.8092765808105469 9.551735877990723 -0.4997167587280273 L 18.23728561401367 14.55522346496582 C 18.41578674316406 14.86463356018066 18.41569519042969 15.24576377868652 18.23704528808594 15.55508327484131 C 18.05838584899902 15.86440372467041 17.72830581665039 16.0549430847168 17.37109565734863 16.0549430847168 L -3.814697265625e-06 16.0549430847168 C -0.3572139739990234 16.0549430847168 -0.6872940063476563 15.86440372467041 -0.8659534454345703 15.55508327484131 C -1.04460334777832 15.24576377868652 -1.044694900512695 14.86463356018066 -0.8661937713623047 14.55522346496582 L 7.819355964660645 -0.4997167587280273 C 7.997956275939941 -0.8092765808105469 8.328166007995605 -0.9999961853027344 8.685545921325684 -0.9999961853027344 Z" stroke="none"/>
      </g>
    </g>
  </g>
</svg>
